<svg width="800" height="300" viewBox="0 0 800 300" xmlns="http://www.w3.org/2000/svg">
  <defs>
    <style>.mono{font-family:'Share Tech Mono','Courier New',monospace}.orb{font-family:'Orbitron','Share Tech Mono',monospace}</style>
  </defs>

  <rect width="800" height="300" fill="#06080a"/>

  <!-- Title -->
  <text x="32" y="32" class="mono" font-size="10" fill="#C8001A" letter-spacing="2">// REGISTRO DE MISIONES</text>
  <line x1="32" y1="40" x2="768" y2="40" stroke="#1a2028" stroke-width="1"/>

  <!-- Quest 1 — DONE -->
  <rect x="32" y="52" width="736" height="36" fill="#0d1014"/>
  <rect x="32" y="52" width="3" height="36" fill="#00ff9d"/>
  <text x="52" y="66" dominant-baseline="central" class="mono" font-size="10" fill="#00ff9d">✔</text>
  <text x="70" y="64" class="mono" font-size="11" fill="#e8f0f4">Dominar el Stack Full Stack</text>
  <text x="70" y="78" class="mono" font-size="9" fill="#3a5060">Java · Node.js · React · PostgreSQL — COMPLETADO</text>

  <!-- Quest 2 — DONE -->
  <rect x="32" y="90" width="736" height="36" fill="#06080a"/>
  <rect x="32" y="90" width="3" height="36" fill="#00ff9d"/>
  <text x="52" y="104" dominant-baseline="central" class="mono" font-size="10" fill="#00ff9d">✔</text>
  <text x="70" y="102" class="mono" font-size="11" fill="#e8f0f4">Construir APIs REST escalables</text>
  <text x="70" y="116" class="mono" font-size="9" fill="#3a5060">NestJS + TypeScript + PostgreSQL — COMPLETADO</text>

  <!-- Quest 3 — IN PROGRESS -->
  <rect x="32" y="128" width="736" height="36" fill="#0d1014"/>
  <rect x="32" y="128" width="3" height="36" fill="#FFB800"/>
  <text x="52" y="142" dominant-baseline="central" class="mono" font-size="10" fill="#FFB800">►</text>
  <text x="70" y="140" class="mono" font-size="11" fill="#e8f0f4">Desarrollo Mobile — React Native</text>
  <!-- Progress bar -->
  <rect x="500" y="135" width="160" height="6" fill="#1a2028"/>
  <rect x="500" y="135" width="120" height="6" fill="#FFB800" opacity="0.85"/>
  <text x="668" y="140" dominant-baseline="central" class="mono" font-size="9" fill="#FFB800">75%</text>
  <text x="70" y="154" class="mono" font-size="9" fill="#3a5060">EN PROGRESO</text>

  <!-- Quest 4 — IN PROGRESS -->
  <rect x="32" y="166" width="736" height="36" fill="#06080a"/>
  <rect x="32" y="166" width="3" height="36" fill="#FFB800"/>
  <text x="52" y="180" dominant-baseline="central" class="mono" font-size="10" fill="#FFB800">►</text>
  <text x="70" y="178" class="mono" font-size="11" fill="#e8f0f4">Python para Backend / ML</text>
  <rect x="500" y="173" width="160" height="6" fill="#1a2028"/>
  <rect x="500" y="173" width="88" height="6" fill="#FFB800" opacity="0.85"/>
  <text x="668" y="178" dominant-baseline="central" class="mono" font-size="9" fill="#FFB800">55%</text>
  <text x="70" y="192" class="mono" font-size="9" fill="#3a5060">FastAPI · NumPy — EN PROGRESO</text>

  <!-- Quest 5 — LOCKED -->
  <rect x="32" y="204" width="736" height="36" fill="#0d1014" opacity="0.5"/>
  <rect x="32" y="204" width="3" height="36" fill="#1a2028"/>
  <text x="52" y="218" dominant-baseline="central" class="mono" font-size="10" fill="#3a5060">▣</text>
  <text x="70" y="216" class="mono" font-size="11" fill="#3a5060">Deploy en la Nube — AWS / GCP</text>
  <text x="70" y="230" class="mono" font-size="9" fill="#1a2028">BLOQUEADO — Requiere nivel 5</text>

  <line x1="32" y1="250" x2="768" y2="250" stroke="#1a2028" stroke-width="1"/>

  <!-- Contact -->
  <text x="32" y="268" class="mono" font-size="10" fill="#C8001A" letter-spacing="2">// INICIAR COMUNICACIÓN</text>

  <!-- GitHub button -->
  <rect x="32" y="278" width="130" height="16" fill="none" stroke="#C8001A" stroke-width="1"/>
  <text x="97" y="286" text-anchor="middle" dominant-baseline="central" class="mono" font-size="9" fill="#C8001A" letter-spacing="2">► GITHUB</text>

  <!-- Email button -->
  <rect x="172" y="278" width="130" height="16" fill="none" stroke="#00ff9d" stroke-width="1"/>
  <text x="237" y="286" text-anchor="middle" dominant-baseline="central" class="mono" font-size="9" fill="#00ff9d" letter-spacing="2">► EMAIL</text>

  <!-- Status line -->
  <circle cx="700" cy="286" r="3" fill="#00ff9d"/>
  <text x="710" y="286" dominant-baseline="central" class="mono" font-size="8" fill="#3a5060" letter-spacing="1">SISTEMA ACTIVO</text>
</svg>
